<svg width="183" height="179" viewBox="0 0 183 179" fill="none" xmlns="http://www.w3.org/2000/svg">
<g id="folder-icon">
<g id="Vector" filter="url(#filter0_i)">
<path d="M130.085 0H18.4017L18.4017 51.7091H33.3074C34.3975 51.7064 35.4704 51.9608 36.4245 52.4484C37.3785 52.936 38.1822 53.6406 38.7593 54.4954L43.9256 62.0968L48.8655 69.3592L49.7929 70.7249L55.4445 79.034L55.5093 79.1288H130.085V0Z" fill="#2F1728"/>
</g>
<g id="Vector_2" filter="url(#filter1_i)">
<path d="M182.808 42.2124L76.7393 6.146L73.714 14.1133L69.9604 22.8394L64.5053 35.5387L60.4112 45.0643L57.3433 52.2061L53.2493 61.7268L50.1761 68.8735L50.0898 69.0795L49.5983 70.2175L55.2586 78.3943L55.3235 78.4874H160.164C161.126 78.4866 162.076 78.6819 162.945 79.0588C163.813 79.4357 164.577 79.9847 165.181 80.6653L165.624 79.6451L171.036 67.0586L182.808 42.2124Z" fill="#D94E5A"/>
</g>
<g id="Vector_3" opacity="0.41" filter="url(#filter2_i)">
<path d="M102.403 78.8215L99.9043 77.9258H60.8385C60.7867 78.2219 60.7669 78.5219 60.7793 78.8215H55.4385L55.5032 78.9156H102.661L102.403 78.8215ZM102.403 78.8215H55.4385L55.5032 78.9156H102.661L102.403 78.8215ZM102.403 78.8215H55.4385L55.5032 78.9156H102.661L102.403 78.8215ZM102.661 78.9156L102.403 78.8215H55.4385L55.5032 78.9156H102.661ZM8.43682 178.01C6.7327 178.008 5.09913 177.385 3.89414 176.277C2.68914 175.17 2.01102 173.668 2.00843 172.102V57.6071C2.0099 56.04 2.68748 54.5374 3.89256 53.4289C5.09764 52.3203 6.73186 51.6962 8.43682 51.6936H18.4563V50.7039H8.43682C6.44653 50.7073 4.53892 51.4359 3.13208 52.7299C1.72524 54.0239 0.933941 55.7778 0.931641 57.6071V172.102C0.93334 173.425 1.34887 174.72 2.12872 175.833C2.90856 176.945 4.01987 177.828 5.33028 178.376H100.184C100.098 178.258 100.012 178.134 99.9259 178.01H8.43682ZM165.454 80.0834C164.755 79.4015 163.911 78.8583 162.975 78.4873C162.039 78.1162 161.03 77.9251 160.011 77.9258H56.1007L50.2862 69.4242L50.146 69.2164L45.2145 62.0064L39.6905 53.9303C39.0135 52.9438 38.076 52.1306 36.9652 51.5665C35.8545 51.0024 34.6066 50.7056 33.3375 50.7039H8.43682C6.44653 50.7073 4.53892 51.4359 3.13208 52.7299C1.72524 54.0239 0.933941 55.7778 0.931641 57.6071V172.102C0.93334 173.425 1.34887 174.72 2.12872 175.833C2.90856 176.945 4.01987 177.828 5.33028 178.376C6.30442 178.789 7.36439 179.001 8.43682 179H160.011C161.085 179.001 162.147 178.789 163.123 178.376C164.433 177.828 165.544 176.945 166.324 175.833C167.104 174.72 167.52 173.425 167.521 172.102V84.8291C167.523 83.0615 166.782 81.3616 165.454 80.0834ZM166.445 172.102C166.442 173.669 165.763 175.171 164.557 176.278C163.35 177.386 161.716 178.009 160.011 178.01H8.43682C6.7327 178.008 5.09913 177.385 3.89414 176.277C2.68914 175.17 2.01102 173.668 2.00843 172.102V57.6071C2.0099 56.04 2.68748 54.5374 3.89256 53.4289C5.09764 52.3203 6.73186 51.6962 8.43682 51.6936H33.3375C34.4259 51.6908 35.4971 51.9435 36.4496 52.4276C37.4021 52.9116 38.2044 53.6111 38.7806 54.4598L43.9385 62.0063L48.8702 69.2164L49.7961 70.5723L55.4385 78.8215L55.5032 78.9156L160.011 78.9155C161.717 78.9169 163.352 79.5403 164.559 80.649C165.765 81.7577 166.443 83.2611 166.445 84.829V172.102ZM102.403 78.8215H55.4385L55.5032 78.9156H102.661L102.403 78.8215ZM102.403 78.8215H55.4385L55.5032 78.9156H102.661L102.403 78.8215ZM102.403 78.8215H55.4385L55.5032 78.9156H102.661L102.403 78.8215ZM102.403 78.8215L99.9043 77.9258H56.1007L50.2862 69.4242L49.7961 70.5723L55.4385 78.8215L55.5032 78.9156H102.661L102.403 78.8215Z" fill="#2F1728"/>
</g>
<g id="Vector_4" filter="url(#filter3_i)">
<path d="M84.3056 156.172C79.894 156.172 75.5814 154.964 71.9133 152.702C68.2451 150.44 65.3862 147.225 63.6979 143.464C62.0097 139.702 61.5679 135.563 62.4286 131.57C63.2893 127.576 65.4137 123.908 68.5331 121.029C71.6526 118.15 75.6271 116.19 79.954 115.396C84.2808 114.601 88.7657 115.009 92.8415 116.567C96.9173 118.125 100.401 120.764 102.852 124.149C105.303 127.534 106.611 131.514 106.611 135.586C106.604 141.044 104.252 146.276 100.071 150.135C95.889 153.995 90.2193 156.165 84.3056 156.172Z" fill="white"/>
</g>
<path id="Vector_5" d="M92.7974 133.644H86.1974V127.818C86.1974 127.303 85.9657 126.809 85.5531 126.444C85.1405 126.08 84.5809 125.875 83.9974 125.875C83.4139 125.875 82.8544 126.08 82.4418 126.444C82.0292 126.809 81.7974 127.303 81.7974 127.818V133.644H75.1974C74.6143 133.644 74.0554 133.849 73.6434 134.213C73.2314 134.578 73 135.071 73 135.586C73 136.1 73.2314 136.594 73.6434 136.958C74.0554 137.322 74.6143 137.527 75.1974 137.528H81.7974V143.354C81.7974 143.869 82.0292 144.363 82.4418 144.727C82.8544 145.091 83.4139 145.296 83.9974 145.296C84.5809 145.296 85.1405 145.091 85.5531 144.727C85.9657 144.363 86.1974 143.869 86.1974 143.354V137.528H92.7974C93.0865 137.528 93.3729 137.478 93.6401 137.381C93.9073 137.283 94.1502 137.14 94.3547 136.96C94.5593 136.779 94.7216 136.565 94.8323 136.33C94.943 136.094 95 135.841 95 135.586C95 135.331 94.943 135.078 94.8323 134.842C94.7216 134.606 94.5593 134.392 94.3547 134.212C94.1502 134.031 93.9073 133.888 93.6401 133.791C93.3729 133.693 93.0865 133.643 92.7974 133.644Z" fill="#D94E5A"/>
</g>
<defs>
<filter id="filter0_i" x="18.4017" y="0" width="112.684" height="81.1288" filterUnits="userSpaceOnUse" color-interpolation-filters="sRGB">
<feFlood flood-opacity="0" result="BackgroundImageFix"/>
<feBlend mode="normal" in="SourceGraphic" in2="BackgroundImageFix" result="shape"/>
<feColorMatrix in="SourceAlpha" type="matrix" values="0 0 0 0 0 0 0 0 0 0 0 0 0 0 0 0 0 0 127 0" result="hardAlpha"/>
<feOffset dx="1" dy="2"/>
<feGaussianBlur stdDeviation="4"/>
<feComposite in2="hardAlpha" operator="arithmetic" k2="-1" k3="1"/>
<feColorMatrix type="matrix" values="0 0 0 0 0 0 0 0 0 0 0 0 0 0 0 0 0 0 0.25 0"/>
<feBlend mode="normal" in2="shape" result="effect1_innerShadow"/>
</filter>
<filter id="filter1_i" x="45.5983" y="6.146" width="137.209" height="78.5193" filterUnits="userSpaceOnUse" color-interpolation-filters="sRGB">
<feFlood flood-opacity="0" result="BackgroundImageFix"/>
<feBlend mode="normal" in="SourceGraphic" in2="BackgroundImageFix" result="shape"/>
<feColorMatrix in="SourceAlpha" type="matrix" values="0 0 0 0 0 0 0 0 0 0 0 0 0 0 0 0 0 0 127 0" result="hardAlpha"/>
<feOffset dx="-4" dy="4"/>
<feGaussianBlur stdDeviation="4"/>
<feComposite in2="hardAlpha" operator="arithmetic" k2="-1" k3="1"/>
<feColorMatrix type="matrix" values="0 0 0 0 0 0 0 0 0 0 0 0 0 0 0 0 0 0 0.25 0"/>
<feBlend mode="normal" in2="shape" result="effect1_innerShadow"/>
</filter>
<filter id="filter2_i" x="-3.06836" y="50.7039" width="170.59" height="132.296" filterUnits="userSpaceOnUse" color-interpolation-filters="sRGB">
<feFlood flood-opacity="0" result="BackgroundImageFix"/>
<feBlend mode="normal" in="SourceGraphic" in2="BackgroundImageFix" result="shape"/>
<feColorMatrix in="SourceAlpha" type="matrix" values="0 0 0 0 0 0 0 0 0 0 0 0 0 0 0 0 0 0 127 0" result="hardAlpha"/>
<feOffset dx="-4" dy="4"/>
<feGaussianBlur stdDeviation="4"/>
<feComposite in2="hardAlpha" operator="arithmetic" k2="-1" k3="1"/>
<feColorMatrix type="matrix" values="0 0 0 0 0 0 0 0 0 0 0 0 0 0 0 0 0 0 0.25 0"/>
<feBlend mode="normal" in2="shape" result="effect1_innerShadow"/>
</filter>
<filter id="filter3_i" x="62" y="115" width="44.6111" height="43.1717" filterUnits="userSpaceOnUse" color-interpolation-filters="sRGB">
<feFlood flood-opacity="0" result="BackgroundImageFix"/>
<feBlend mode="normal" in="SourceGraphic" in2="BackgroundImageFix" result="shape"/>
<feColorMatrix in="SourceAlpha" type="matrix" values="0 0 0 0 0 0 0 0 0 0 0 0 0 0 0 0 0 0 127 0" result="hardAlpha"/>
<feOffset dy="2"/>
<feGaussianBlur stdDeviation="2"/>
<feComposite in2="hardAlpha" operator="arithmetic" k2="-1" k3="1"/>
<feColorMatrix type="matrix" values="0 0 0 0 0 0 0 0 0 0 0 0 0 0 0 0 0 0 0.25 0"/>
<feBlend mode="normal" in2="shape" result="effect1_innerShadow"/>
</filter>
</defs>
</svg>
